<svg xmlns="http://www.w3.org/2000/svg" viewBox="0 0 1440 1000"><title>Static portfolio-background preview</title><rect width="1440" height="1000" fill="#000"/><g opacity="0.8"><circle cx="555.9755047783256" cy="518.770155031234" r="0.6" fill="white" opacity="0.723060054819798"/><circle cx="607.4215302988887" cy="15.735165681689978" r="0.8" fill="white" opacity="0.8386335730087011"/><circle cx="495.910805426538" cy="523.1531173922122" r="1.3" fill="white" opacity="0.8783741993748118"/><circle cx="780.4362882301211" cy="258.75286338850856" r="0.8" fill="white" opacity="1"/><circle cx="785.0452580675483" cy="859.8074768669903" r="0.8" fill="white" opacity="1"/><circle cx="979.0053312107921" cy="214.49411427602172" r="0.6" fill="white" opacity="0.8183862602803855"/><circle cx="318.37672647088766" cy="305.9491910971701" r="1" fill="white" opacity="0.6626841422973665"/><circle cx="1351.4907808229327" cy="647.143870126456" r="1" fill="white" opacity="1"/><circle cx="250.8347150310874" cy="134.70486225560308" r="0.8" fill="white" opacity="1"/><circle cx="1213.8426492735744" cy="399.80553975328803" r="0.7" fill="white" opacity="1"/><circle cx="1435.0928687676787" cy="984.2523620463908" r="1.8" fill="white" opacity="1"/><circle cx="1212.4113393947482" cy="919.8916140012443" r="0.8" fill="white" opacity="1"/><circle cx="509.3814733251929" cy="539.4614567048848" r="1" fill="white" opacity="0.8498895724571777"/><circle cx="1256.7601446434855" cy="597.0142907463014" r="0.7" fill="white" opacity="1"/><circle cx="475.2999549731612" cy="26.034431997686625" r="0.8" fill="white" opacity="0.9334300671005621"/><circle cx="1422.4777491018176" cy="913.3760998956859" r="1.3" fill="white" opacity="0.7965613648295403"/><circle cx="1205.6293806061149" cy="517.1467182226479" r="1.8" fill="white" opacity="1"/><circle cx="63.990727476775646" cy="406.66052838787436" r="0.8" fill="white" opacity="0.9914982940535992"/><circle cx="122.14495774358511" cy="52.58751520887017" r="0.7" fill="white" opacity="0.7939893956528977"/><circle cx="657.3760451003909" cy="445.42264519259334" r="1" fill="white" opacity="0.8238304651295768"/><circle cx="163.4285345301032" cy="570.400417316705" r="1.8" fill="white" opacity="1"/><circle cx="13.173557929694653" cy="816.9797263108194" r="1" fill="white" opacity="0.9177061500493436"/><circle cx="562.6810997352004" cy="651.0240384377539" r="0.6" fill="white" opacity="0.8738945602497552"/><circle cx="1059.1985125467181" cy="127.80187977477908" r="1.3" fill="white" opacity="1"/><circle cx="675.535282753408" cy="73.93263699486852" r="1.8" fill="white" opacity="1"/><circle cx="1233.3540461584926" cy="16.40267064794898" r="1.8" fill="white" opacity="1"/><circle cx="1017.8678536042571" cy="186.77674094215035" r="0.8" fill="white" opacity="0.850076744821854"/><circle cx="1126.4436865970492" cy="178.72974602505565" r="1" fill="white" opacity="1"/><circle cx="73.61222293227911" cy="87.02377276495099" r="0.7" fill="white" opacity="1"/><circle cx="254.98385231941938" cy="206.05546003207564" r="1.3" fill="white" opacity="0.7884087875951082"/><circle cx="1272.5709420070052" cy="616.098674479872" r="1.8" fill="white" opacity="0.8489426255458965"/><circle cx="124.01635240763426" cy="235.36749882623553" r="1" fill="white" opacity="0.9949516486376524"/><circle cx="1338.2282027229667" cy="166.0245326347649" r="0.8" fill="white" opacity="1"/><circle cx="179.9208865687251" cy="412.2595055960119" r="0.7" fill="white" opacity="0.9235094956587999"/><circle cx="325.56233759969473" cy="298.5632033087313" r="0.8" fill="white" opacity="0.9628979644970967"/><circle cx="1053.2275451347232" cy="166.32170556113124" r="1.8" fill="white" opacity="0.7831517237238587"/><circle cx="228.85831978172064" cy="176.85593711212277" r="1" fill="white" opacity="1"/><circle cx="691.4293090626597" cy="299.0315309725702" r="1.3" fill="white" opacity="1"/><circle cx="799.5202630385756" cy="809.5640041865408" r="0.8" fill="white" opacity="1"/><circle cx="661.794549934566" cy="884.1442461125553" r="0.7" fill="white" opacity="1"/><circle cx="1213.883921764791" cy="107.50931920483708" r="0.8" fill="white" opacity="0.7810136349638923"/><circle cx="1024.1795299574733" cy="980.583572294563" r="0.6" fill="white" opacity="0.9290140574332327"/><circle cx="391.029190979898" cy="752.8150663711131" r="0.8" fill="white" opacity="1"/><circle cx="1053.8409019634128" cy="157.8323128633201" r="0.6" fill="white" opacity="1"/><circle cx="280.5926063284278" cy="880.5463244207203" r="1.3" fill="white" opacity="0.8323373281164095"/><circle cx="54.24820940941572" cy="833.822978194803" r="0.7" fill="white" opacity="1"/><circle cx="600.5798440799117" cy="572.8506916202605" r="0.7" fill="white" opacity="0.5849541648442392"/><circle cx="1139.8963863775134" cy="425.3284106962383" r="0.6" fill="white" opacity="0.821660467721522"/><circle cx="865.178221128881" cy="165.59891076758504" r="0.8" fill="white" opacity="0.8138660266762598"/><circle cx="709.1182575747371" cy="310.8524098061025" r="0.8" fill="white" opacity="0.8671369370701721"/><circle cx="1062.5691949948668" cy="367.5254941917956" r="1.3" fill="white" opacity="0.7642827738553752"/><circle cx="1046.897038333118" cy="606.0203569941223" r="0.8" fill="white" opacity="0.9160542427143081"/><circle cx="982.7408638224006" cy="191.86934875324368" r="0.7" fill="white" opacity="1"/><circle cx="1417.6788346096873" cy="751.4698407612741" r="1.3" fill="white" opacity="1"/><circle cx="1075.3004663810134" cy="700.5144008435309" r="1.8" fill="white" opacity="0.8224562242871617"/><circle cx="768.1851429864764" cy="913.2412816397846" r="0.8" fill="white" opacity="1"/><circle cx="517.2868820652366" cy="560.6302213855088" r="0.8" fill="white" opacity="0.5918366162606982"/><circle cx="520.2253506705165" cy="195.66855719313025" r="0.7" fill="white" opacity="1"/><circle cx="1130.9831308946013" cy="413.8126508332789" r="0.8" fill="white" opacity="0.7459041693073232"/><circle cx="253.5092354938388" cy="666.7696270160377" r="1.8" fill="white" opacity="0.8702612039633095"/><circle cx="1311.728873513639" cy="57.72442417219281" r="1.8" fill="white" opacity="0.8678704787744209"/><circle cx="678.4594659134746" cy="196.13715773448348" r="0.7" fill="white" opacity="1"/><circle cx="125.7329111918807" cy="440.2357959188521" r="0.8" fill="white" opacity="1"/><circle cx="939.0241010114551" cy="105.32914800569415" r="0.8" fill="white" opacity="1"/><circle cx="57.885685823857784" cy="466.0651651211083" r="1" fill="white" opacity="0.8617620151257142"/><circle cx="325.48909049481153" cy="630.7595535181463" r="0.8" fill="white" opacity="0.6930819572950715"/><circle cx="1209.5717799291015" cy="615.919700358063" r="1.8" fill="white" opacity="0.9192534818546846"/><circle cx="77.29077469557524" cy="199.08891199156642" r="1.3" fill="white" opacity="1"/><circle cx="1346.482416652143" cy="378.1359647400677" r="0.6" fill="white" opacity="1"/><circle cx="955.8283845707774" cy="515.1149681769311" r="1.8" fill="white" opacity="0.6947384561807848"/><circle cx="356.42795976251364" cy="492.82054090872407" r="1" fill="white" opacity="0.4955374508409296"/><circle cx="907.2765417024493" cy="462.163298856467" r="1.3" fill="white" opacity="0.6085544588137419"/><circle cx="477.1504136547446" cy="8.490656036883593" r="0.8" fill="white" opacity="1"/><circle cx="15.397758297622204" cy="814.9779378436506" r="1" fill="white" opacity="0.8214326856192202"/><circle cx="854.1359233483672" cy="151.21480682864785" r="0.6" fill="white" opacity="1"/><circle cx="1224.3549371883273" cy="765.1120009832084" r="1" fill="white" opacity="1"/><circle cx="828.4272744879127" cy="6.25338451936841" r="0.8" fill="white" opacity="1"/><circle cx="1071.523871831596" cy="258.8183111511171" r="0.8" fill="white" opacity="1"/><circle cx="434.4363933429122" cy="12.19929987564683" r="0.8" fill="white" opacity="1"/><circle cx="670.3057463094592" cy="147.44002325460315" r="0.8" fill="white" opacity="1"/><circle cx="987.7568468078971" cy="267.6186081953347" r="0.6" fill="white" opacity="1"/><circle cx="942.9396353289485" cy="150.30124923214316" r="1" fill="white" opacity="1"/><circle cx="2.9763424023985863" cy="650.1911343075335" r="1.3" fill="white" opacity="1"/><circle cx="823.315004222095" cy="630.0976830534637" r="1.3" fill="white" opacity="0.8327472242480145"/><circle cx="601.4892282709479" cy="748.3510975725949" r="1" fill="white" opacity="1"/><circle cx="1309.78420894593" cy="180.7872257195413" r="0.6" fill="white" opacity="1"/><circle cx="849.3089931830764" cy="605.4277368821204" r="0.8" fill="white" opacity="0.5465347607305739"/><circle cx="967.9749960824847" cy="27.980610262602568" r="1.3" fill="white" opacity="0.9958950502797962"/><circle cx="464.8807665333152" cy="276.28593565896153" r="0.6" fill="white" opacity="1"/><circle cx="163.60300283879042" cy="241.83202674612403" r="1.3" fill="white" opacity="1"/><circle cx="416.8938183411956" cy="196.46684685721993" r="0.8" fill="white" opacity="1"/><circle cx="1065.2842570468783" cy="762.4297472648323" r="1.3" fill="white" opacity="0.7525327135808766"/><circle cx="1172.0940592512488" cy="363.82851796224713" r="1.8" fill="white" opacity="1"/><circle cx="537.3476771637797" cy="237.68675094470382" r="0.8" fill="white" opacity="1"/><circle cx="1033.0965405330062" cy="332.6865159906447" r="0.8" fill="white" opacity="0.5623157134058421"/><circle cx="402.64757227152586" cy="673.7313489429653" r="1.8" fill="white" opacity="0.5469637656770647"/><circle cx="326.1979540809989" cy="20.454552490264177" r="1" fill="white" opacity="0.9242216441547497"/><circle cx="515.376142077148" cy="897.7978094480932" r="0.6" fill="white" opacity="0.7870620764326305"/><circle cx="1359.1891324147582" cy="326.78510854020715" r="0.8" fill="white" opacity="1"/><circle cx="563.8759769126773" cy="833.6169826798141" r="0.7" fill="white" opacity="0.9552892330102623"/><circle cx="1269.1675486788154" cy="565.2100597508252" r="0.7" fill="white" opacity="1"/><circle cx="523.4525577351451" cy="589.3069258891046" r="1" fill="white" opacity="0.7295330381230452"/><circle cx="800.3498166427016" cy="707.2813012637198" r="1.3" fill="white" opacity="0.5594068941904698"/><circle cx="1199.1867561265826" cy="357.76352835819125" r="1.3" fill="white" opacity="1"/><circle cx="211.88419070094824" cy="439.2113727517426" r="0.7" fill="white" opacity="0.8810231106122957"/><circle cx="538.7473342940211" cy="129.5511364005506" r="1" fill="white" opacity="0.9312673141714186"/><circle cx="1035.6630658730865" cy="31.014083418995142" r="1.8" fill="white" opacity="1"/><circle cx="115.20344506949186" cy="218.29317836090922" r="1.3" fill="white" opacity="1"/><circle cx="724.1354778036475" cy="18.14513700082898" r="0.8" fill="white" opacity="1"/><circle cx="179.83713191002607" cy="598.5627896152437" r="1.8" fill="white" opacity="1"/><circle cx="348.1196027621627" cy="695.6427567638457" r="1.8" fill="white" opacity="0.8457152549887543"/><circle cx="564.955828897655" cy="56.273437570780516" r="0.8" fill="white" opacity="1"/><circle cx="864.6152576431632" cy="424.7683105058968" r="1.3" fill="white" opacity="0.7927372905460652"/><circle cx="236.70486073940992" cy="151.5695466659963" r="0.7" fill="white" opacity="1"/><circle cx="914.6163999661803" cy="752.1469355560839" r="1.3" fill="white" opacity="0.8038680586265401"/><circle cx="1257.879942767322" cy="994.2171233706176" r="0.7" fill="white" opacity="1"/><circle cx="470.9236278757453" cy="341.4081637747586" r="1.3" fill="white" opacity="0.8932960552338045"/><circle cx="1320.7396809384227" cy="831.494381185621" r="1" fill="white" opacity="0.7946896175388246"/><circle cx="255.95668014138937" cy="717.3265465535223" r="0.8" fill="white" opacity="1"/><circle cx="769.818071834743" cy="448.58236564323306" r="0.8" fill="white" opacity="0.5447144686337562"/><circle cx="1249.5669361576438" cy="822.4622798152268" r="0.8" fill="white" opacity="1"/><circle cx="1074.7370026633143" cy="381.4555793069303" r="1.3" fill="white" opacity="0.829624899791088"/><circle cx="1406.8499159440398" cy="386.3018290139735" r="1" fill="white" opacity="1"/><circle cx="513.0187512561679" cy="942.2726067714393" r="0.7" fill="white" opacity="1"/><circle cx="1105.9577801451087" cy="106.89855413511395" r="0.7" fill="white" opacity="1"/><circle cx="22.89848607033491" cy="57.266739662736654" r="0.8" fill="white" opacity="0.8548214428592473"/><circle cx="45.91183003038168" cy="645.0133346952498" r="0.6" fill="white" opacity="1"/><circle cx="506.13676618784666" cy="917.1366016380489" r="0.6" fill="white" opacity="1"/><circle cx="1434.41500749439" cy="430.75519474223256" r="0.6" fill="white" opacity="1"/><circle cx="220.8320413157344" cy="439.9367733858526" r="1.8" fill="white" opacity="0.9559731095563619"/><circle cx="425.66439505666494" cy="282.7219278551638" r="1.8" fill="white" opacity="0.9593406914966182"/><circle cx="904.2331517860293" cy="546.4684176258743" r="1.3" fill="white" opacity="0.7177979236794636"/><circle cx="8.163715861737728" cy="839.6407221443951" r="0.8" fill="white" opacity="1"/><circle cx="1025.5518285557628" cy="248.16990410909057" r="0.8" fill="white" opacity="1"/><circle cx="1062.5358336791396" cy="804.508785251528" r="0.8" fill="white" opacity="1"/><circle cx="648.7751932069659" cy="547.507434617728" r="0.6" fill="white" opacity="0.517291998686269"/><circle cx="1149.3352529034019" cy="1.2339693494141102" r="0.8" fill="white" opacity="0.9889481136342511"/><circle cx="625.47825794667" cy="150.86566796526313" r="1.8" fill="white" opacity="0.7786351305898278"/><circle cx="586.8606185540557" cy="243.77539614215493" r="0.7" fill="white" opacity="1"/><circle cx="437.6364256069064" cy="993.9383449964225" r="0.7" fill="white" opacity="0.835732735041529"/><circle cx="1418.9672162756324" cy="17.784081865102053" r="0.8" fill="white" opacity="1"/><circle cx="450.43798964470625" cy="579.6189135871828" r="1" fill="white" opacity="0.6880728900921531"/><circle cx="712.8794723376632" cy="974.743562284857" r="0.8" fill="white" opacity="0.9447562579298392"/><circle cx="1375.0966341421008" cy="128.39115364477038" r="0.7" fill="white" opacity="0.8367846027016639"/><circle cx="1227.0034536346793" cy="238.61051769927144" r="1" fill="white" opacity="0.9312843195861205"/><circle cx="941.6639338061213" cy="541.219802107662" r="0.6" fill="white" opacity="0.8936978903668934"/><circle cx="568.7393676862121" cy="524.9553979374468" r="1.3" fill="white" opacity="0.8346458794281354"/><circle cx="741.8418539687991" cy="174.94117794558406" r="0.8" fill="white" opacity="0.9951469025574625"/><circle cx="602.2940626367927" cy="72.60304735973477" r="0.8" fill="white" opacity="0.7639048739103601"/><circle cx="201.79525058716536" cy="430.15380715951324" r="0.6" fill="white" opacity="0.7758696230594069"/><circle cx="1106.4935272559524" cy="387.7733298577368" r="1.3" fill="white" opacity="0.925422138335416"/><circle cx="724.9643702432513" cy="151.60904778167605" r="1" fill="white" opacity="0.9512886134907603"/><circle cx="722.5953909382224" cy="800.7217538543046" r="1.3" fill="white" opacity="1"/><circle cx="1284.8773501440883" cy="841.1017148755491" r="0.6" fill="white" opacity="0.8968993553426117"/><circle cx="872.1014237031341" cy="834.8800973035395" r="0.6" fill="white" opacity="1"/><circle cx="1307.9627181217074" cy="682.8607055358589" r="1.8" fill="white" opacity="1"/><circle cx="1124.5700361952186" cy="388.4970326907933" r="0.8" fill="white" opacity="0.7934380062937272"/><circle cx="766.3618926331401" cy="381.439623888582" r="0.6" fill="white" opacity="0.5016070180688985"/><circle cx="415.42877968400717" cy="728.7787520326674" r="1.3" fill="white" opacity="0.8026108192058747"/><circle cx="360.74168276041746" cy="812.107406090945" r="1" fill="white" opacity="1"/><circle cx="1233.7868460640311" cy="298.52959187701344" r="0.8" fill="white" opacity="0.9659091669833288"/><circle cx="353.1067882105708" cy="483.7389453314245" r="0.8" fill="white" opacity="0.7105346437613481"/><circle cx="940.2475678548217" cy="335.292658302933" r="0.8" fill="white" opacity="0.6025868932076265"/><circle cx="929.6122993156314" cy="814.205716829747" r="0.6" fill="white" opacity="0.8804403531365096"/><circle cx="454.7209182009101" cy="302.99045192077756" r="1" fill="white" opacity="0.5976968473743182"/><circle cx="1213.3761970326304" cy="218.26640283688903" r="0.6" fill="white" opacity="1"/><circle cx="74.2360108718276" cy="136.06549287214875" r="1.3" fill="white" opacity="0.8832784129539504"/><circle cx="1247.2918529435992" cy="7.957517635077238" r="0.8" fill="white" opacity="0.8014324659481645"/><circle cx="1140.7536002621055" cy="296.1209458298981" r="1.8" fill="white" opacity="1"/><circle cx="1186.840529255569" cy="105.48403253778815" r="0.6" fill="white" opacity="1"/><circle cx="598.9785813912749" cy="641.0612449981272" r="1.3" fill="white" opacity="0.6539705495734234"/><circle cx="582.903878800571" cy="568.6100008897483" r="0.8" fill="white" opacity="0.744272253275849"/><circle cx="44.172489903867245" cy="106.73271911218762" r="0.7" fill="white" opacity="0.8694410496158524"/><circle cx="634.5764450356364" cy="928.5491830669343" r="0.7" fill="white" opacity="1"/><circle cx="459.96600206941366" cy="201.0642164386809" r="1.3" fill="white" opacity="1"/><circle cx="771.9781620427966" cy="340.35567147657275" r="0.8" fill="white" opacity="0.8432263334468009"/><circle cx="1366.1714347824454" cy="310.7077297754586" r="0.6" fill="white" opacity="1"/><circle cx="1089.0668545290828" cy="545.8145155571401" r="0.6" fill="white" opacity="0.5264960528793745"/><circle cx="56.5952455624938" cy="820.1790214516222" r="0.8" fill="white" opacity="1"/><circle cx="546.4507378265262" cy="648.832346778363" r="1.8" fill="white" opacity="0.5785281112929805"/><circle cx="1006.85053255409" cy="43.49824832752347" r="0.8" fill="white" opacity="0.7820874548284338"/><circle cx="1024.200917892158" cy="703.328003641218" r="0.8" fill="white" opacity="0.564419504518155"/><circle cx="892.1695345267653" cy="968.3305867947638" r="1.3" fill="white" opacity="0.9651089588413014"/><circle cx="1384.6638913080096" cy="113.62315667793155" r="0.8" fill="white" opacity="1"/><circle cx="1055.216130875051" cy="812.6268577761948" r="1.8" fill="white" opacity="1"/><circle cx="265.2740452811122" cy="847.3329334519804" r="0.6" fill="white" opacity="0.8851616801228374"/><circle cx="1343.8983416184783" cy="393.76415172591805" r="0.7" fill="white" opacity="1"/><circle cx="401.366157643497" cy="460.7565435580909" r="0.6" fill="white" opacity="0.5003606578381732"/><circle cx="1239.1808274015784" cy="310.1864536292851" r="1" fill="white" opacity="1"/><circle cx="78.98789685219526" cy="936.7679036222398" r="0.8" fill="white" opacity="0.8486521341372281"/><circle cx="1072.8973894938827" cy="935.5452680028975" r="0.8" fill="white" opacity="0.9853060983354225"/><circle cx="517.7123219892383" cy="335.2062623016536" r="0.7" fill="white" opacity="0.9251859135366978"/><circle cx="455.56346978992224" cy="225.34024389460683" r="1.3" fill="white" opacity="1"/><circle cx="383.45038276165724" cy="255.76682528480887" r="0.7" fill="white" opacity="1"/><circle cx="1114.1886508092284" cy="336.05979988351464" r="0.8" fill="white" opacity="0.654903633176582"/><circle cx="471.26341950148344" cy="113.39138029143214" r="0.6" fill="white" opacity="1"/><circle cx="1180.0891556963325" cy="56.821749079972506" r="0.7" fill="white" opacity="0.9560341777978465"/><circle cx="1278.1756631657481" cy="226.1589220725" r="1" fill="white" opacity="1"/><circle cx="1086.7003482207656" cy="53.51392412558198" r="0.7" fill="white" opacity="1"/><circle cx="665.9867353364825" cy="715.676277410239" r="1" fill="white" opacity="0.7265186590421944"/><circle cx="917.3892327770591" cy="925.4348021931946" r="1.3" fill="white" opacity="0.8618495875736699"/><circle cx="254.0841482207179" cy="219.96873011812568" r="1.3" fill="white" opacity="1"/><circle cx="723.2669543847442" cy="74.43412998691201" r="1.3" fill="white" opacity="0.9791624156059697"/><circle cx="382.2558046504855" cy="418.87064604088664" r="1.8" fill="white" opacity="0.6146824522549286"/><circle cx="931.0012986883521" cy="386.5535487420857" r="0.8" fill="white" opacity="0.5878528102941346"/><circle cx="923.5024980828166" cy="371.91609805449843" r="1.8" fill="white" opacity="0.8746569213015029"/><circle cx="1400.6291919574142" cy="726.1672192253172" r="0.8" fill="white" opacity="1"/><circle cx="746.8504125997424" cy="668.7294910661876" r="0.8" fill="white" opacity="0.8551820451021195"/><circle cx="573.3692010864615" cy="242.6224467344582" r="1" fill="white" opacity="0.9385194040602074"/><circle cx="150.1636229082942" cy="391.91618701443076" r="0.7" fill="white" opacity="1"/><circle cx="469.43403359502554" cy="489.38030609861016" r="1.8" fill="white" opacity="0.8201655898347961"/><circle cx="502.9565943405032" cy="892.4531298689544" r="0.8" fill="white" opacity="1"/><circle cx="255.8430376276374" cy="355.65626667812467" r="1.8" fill="white" opacity="0.8645915536908433"/><circle cx="1099.2066828534007" cy="377.57947063073516" r="1.3" fill="white" opacity="0.6043121718638578"/><circle cx="1424.2347019538283" cy="810.5608173646033" r="1.8" fill="white" opacity="1"/><circle cx="420.1666350290179" cy="311.18719233199954" r="0.6" fill="white" opacity="0.9241098790895194"/><circle cx="98.67915596812963" cy="459.74009158089757" r="0.6" fill="white" opacity="0.839376856922172"/><circle cx="367.1770880743861" cy="626.7117350362241" r="1.3" fill="white" opacity="0.49481260498752816"/><circle cx="1033.4906696900725" cy="914.5164922811091" r="0.8" fill="white" opacity="1"/><circle cx="504.47906982153654" cy="752.5226208381355" r="1.8" fill="white" opacity="1"/><circle cx="21.04015376418829" cy="973.5293169505894" r="0.6" fill="white" opacity="0.8120051813079043"/><circle cx="1032.0264987275004" cy="449.81407886371017" r="0.6" fill="white" opacity="0.6131357170944103"/><circle cx="949.5676594600081" cy="616.8753826059401" r="0.8" fill="white" opacity="0.5323073990049306"/><circle cx="88.29868387430906" cy="462.99567027017474" r="0.6" fill="white" opacity="1"/><circle cx="1270.9948786720634" cy="812.7496507950127" r="1" fill="white" opacity="1"/><circle cx="1223.1128249689937" cy="982.5829132460058" r="0.6" fill="white" opacity="1"/><circle cx="598.7376439198852" cy="136.5858525969088" r="0.8" fill="white" opacity="1"/><circle cx="800.4365123435855" cy="920.5879080109298" r="0.8" fill="white" opacity="0.7695425841026009"/><circle cx="755.5184283480048" cy="202.69711362197995" r="1.3" fill="white" opacity="0.7747273559449241"/><circle cx="1411.2002269551158" cy="998.4099618159235" r="1.3" fill="white" opacity="1"/><circle cx="151.17884572595358" cy="908.4165790118277" r="1" fill="white" opacity="1"/><circle cx="896.1098403856158" cy="647.2262139432132" r="0.7" fill="white" opacity="0.7124433390889318"/><circle cx="1210.4921504482627" cy="490.73803843930364" r="1.8" fill="white" opacity="0.8483104334911332"/><circle cx="178.45911484211683" cy="720.8822607062757" r="0.8" fill="white" opacity="1"/><circle cx="610.9757375344634" cy="395.4565511085093" r="0.7" fill="white" opacity="0.5902667892922182"/><circle cx="1106.94220315665" cy="21.282780449837446" r="1.8" fill="white" opacity="1"/><circle cx="1210.703642629087" cy="958.8090707547963" r="1.8" fill="white" opacity="0.8335899867815897"/><circle cx="68.46614878624678" cy="636.282158549875" r="0.8" fill="white" opacity="0.805083340080455"/><circle cx="1026.1190420016646" cy="901.6150706447661" r="0.6" fill="white" opacity="1"/><circle cx="410.9633858129382" cy="90.07511241361499" r="0.7" fill="white" opacity="0.9183319978415967"/><circle cx="1019.8467525467277" cy="635.9171685762703" r="0.8" fill="white" opacity="0.507357744112378"/><circle cx="476.2042389437556" cy="306.0873164795339" r="0.8" fill="white" opacity="0.8664661762746984"/><circle cx="18.505731783807278" cy="384.1217518784106" r="0.7" fill="white" opacity="1"/><circle cx="442.60942351073027" cy="382.36602721735835" r="0.6" fill="white" opacity="0.7962287067761645"/><circle cx="1240.5215778574347" cy="110.63960241153836" r="1.3" fill="white" opacity="1"/><circle cx="618.0625454708934" cy="179.47070812806487" r="0.8" fill="white" opacity="0.817606813693419"/><circle cx="193.93902953714132" cy="266.02652156725526" r="0.6" fill="white" opacity="1"/><circle cx="1262.7226014062762" cy="720.86365474388" r="0.8" fill="white" opacity="1"/><circle cx="24.234466217458248" cy="343.62395526841283" r="1.8" fill="white" opacity="0.8603055907180533"/><circle cx="1061.83647852391" cy="405.8006196282804" r="0.7" fill="white" opacity="0.9069332915707492"/><circle cx="1032.1284079179168" cy="248.69961896911263" r="1.8" fill="white" opacity="1"/><circle cx="8.551454655826092" cy="34.72143737599254" r="1.8" fill="white" opacity="1"/><circle cx="361.39801528304815" cy="480.08812265470624" r="1.8" fill="white" opacity="0.7486284837021959"/><circle cx="936.7276982590556" cy="647.140649612993" r="0.6" fill="white" opacity="0.5935936796595342"/><circle cx="416.68958958238363" cy="124.3315958417952" r="0.8" fill="white" opacity="1"/><circle cx="1063.7507684156299" cy="172.03812999650836" r="0.6" fill="white" opacity="1"/><circle cx="91.33107271045446" cy="662.3203125782311" r="1.8" fill="white" opacity="0.7939939256524666"/><circle cx="903.3441148325801" cy="890.7497092150152" r="1" fill="white" opacity="1"/><circle cx="485.1445471867919" cy="588.4333164431155" r="0.8" fill="white" opacity="0.8286206893168857"/><circle cx="308.38157784193754" cy="712.35779998824" r="1.3" fill="white" opacity="0.6079081676853821"/><circle cx="632.2587361559272" cy="842.1790455467999" r="1" fill="white" opacity="1"/><circle cx="363.69988840073347" cy="261.5820220671594" r="0.6" fill="white" opacity="1"/><circle cx="518.9215033873916" cy="52.335957530885935" r="0.8" fill="white" opacity="1"/><circle cx="1048.9111680909991" cy="779.169827234" r="1.8" fill="white" opacity="0.7628366382792593"/><circle cx="1311.3123532757163" cy="593.5931545682251" r="1.8" fill="white" opacity="1"/><circle cx="431.21542911976576" cy="834.7871243022382" r="0.8" fill="white" opacity="0.7707820249255746"/><circle cx="1353.3549308404326" cy="455.6910083629191" r="1" fill="white" opacity="1"/><circle cx="1148.2130743190646" cy="852.4089041166008" r="0.8" fill="white" opacity="1"/><circle cx="894.5295217260718" cy="925.0617851503193" r="1.3" fill="white" opacity="0.7677863807184622"/><circle cx="1140.717397145927" cy="448.2098645530641" r="0.8" fill="white" opacity="1"/><circle cx="1147.6855522021651" cy="78.97027069702744" r="0.8" fill="white" opacity="0.9780001733684913"/><circle cx="315.567081682384" cy="580.9550355188549" r="1" fill="white" opacity="0.5243162658065558"/><circle cx="556.8540891632438" cy="92.15439530089498" r="0.7" fill="white" opacity="1"/><circle cx="98.43870263546705" cy="514.8904039524496" r="0.8" fill="white" opacity="0.7862161244731397"/><circle cx="1235.060340128839" cy="355.9658587910235" r="1" fill="white" opacity="1"/><circle cx="196.65922533720732" cy="595.1335388235748" r="1.8" fill="white" opacity="1"/><circle cx="1092.136153243482" cy="410.01075552776456" r="1" fill="white" opacity="0.6438464859116356"/><circle cx="1212.018505744636" cy="835.5642161332071" r="0.8" fill="white" opacity="1"/><circle cx="452.5325172767043" cy="686.2901994027197" r="0.7" fill="white" opacity="0.8403759249171708"/><circle cx="143.58179043978453" cy="319.215043913573" r="1.3" fill="white" opacity="1"/><circle cx="123.13206162303686" cy="65.84094883874059" r="0.6" fill="white" opacity="0.9488517408957704"/><circle cx="380.50221662968397" cy="411.1620872281492" r="0.8" fill="white" opacity="0.6222933237045073"/><circle cx="991.061556302011" cy="247.87603178992867" r="0.6" fill="white" opacity="1"/><circle cx="184.83331214636564" cy="783.9154931716621" r="0.8" fill="white" opacity="1"/><circle cx="831.504411958158" cy="931.4253707416356" r="0.6" fill="white" opacity="0.8768335160566494"/><circle cx="1424.3414954468608" cy="255.31011587008834" r="1" fill="white" opacity="1"/><circle cx="1285.5131798610091" cy="809.4764077104628" r="1.8" fill="white" opacity="1"/><circle cx="1115.3185756132007" cy="438.8961414806545" r="0.8" fill="white" opacity="0.7686614145152272"/><circle cx="527.8220519050956" cy="375.614729244262" r="1" fill="white" opacity="0.7261400391196366"/><circle cx="335.3942523524165" cy="206.82971319183707" r="0.7" fill="white" opacity="1"/><circle cx="424.65936060994864" cy="543.1646914221346" r="0.7" fill="white" opacity="0.8746108492382337"/><circle cx="266.3486159965396" cy="965.2635562233627" r="0.7" fill="white" opacity="0.8335334259085356"/><circle cx="821.5600791200995" cy="76.83004485443234" r="0.8" fill="white" opacity="0.8766602973220871"/><circle cx="1206.9246475026011" cy="742.2376028262079" r="0.8" fill="white" opacity="0.9197489170823245"/><circle cx="1121.1783212050796" cy="836.8345596827567" r="0.8" fill="white" opacity="1"/><circle cx="235.64071845263243" cy="88.06961728259921" r="1" fill="white" opacity="0.8193980896845461"/><circle cx="511.0998412594199" cy="835.5626505799592" r="0.8" fill="white" opacity="1"/><circle cx="483.6030910536647" cy="788.2458209060133" r="0.6" fill="white" opacity="0.8825735931750387"/><circle cx="1161.6545343026519" cy="106.70000175014138" r="0.6" fill="white" opacity="1"/><circle cx="337.31841813772917" cy="388.81151704117656" r="0.8" fill="white" opacity="0.6072351088235155"/><circle cx="1433.7289359793067" cy="386.8741919286549" r="0.6" fill="white" opacity="0.8177203082246707"/><circle cx="11.506243161857128" cy="534.2617160640657" r="0.8" fill="white" opacity="1"/><circle cx="696.5787225589156" cy="609.7953193821013" r="0.8" fill="white" opacity="0.9089776819164399"/><circle cx="1011.9115002080798" cy="117.93176038190722" r="1.3" fill="white" opacity="1"/><circle cx="1355.6412109360099" cy="212.8966269083321" r="1.8" fill="white" opacity="1"/><circle cx="1368.1170139834285" cy="244.8879494331777" r="1" fill="white" opacity="1"/><circle cx="890.3478586301208" cy="256.4751268364489" r="0.7" fill="white" opacity="1"/><circle cx="1036.3559998199344" cy="7.318164687603712" r="0.7" fill="white" opacity="1"/><circle cx="1261.9367637857795" cy="355.33222602680326" r="1.3" fill="white" opacity="1"/><circle cx="192.32456367462873" cy="72.4224946461618" r="1" fill="white" opacity="0.853434460842982"/><circle cx="1131.2651651725173" cy="422.9143508709967" r="0.8" fill="white" opacity="0.569830380702624"/><circle cx="493.9942021295428" cy="82.80385984107852" r="1" fill="white" opacity="1"/><circle cx="1126.6219421848655" cy="227.95357229188085" r="1.3" fill="white" opacity="0.8782574949553236"/><circle cx="674.4243023917079" cy="869.3586378358305" r="1" fill="white" opacity="0.9926444204058499"/><circle cx="561.5401148423553" cy="763.6082307435572" r="0.8" fill="white" opacity="1"/><circle cx="864.5746422931552" cy="476.66728822514415" r="0.8" fill="white" opacity="0.5469884837837891"/><circle cx="2.6093437895178795" cy="429.1035612113774" r="0.8" fill="white" opacity="0.7730395306600258"/><circle cx="1246.117890290916" cy="0.8849776349961758" r="1" fill="white" opacity="1"/><circle cx="1047.2884302958846" cy="23.87231821194291" r="1" fill="white" opacity="0.9133902542525902"/><circle cx="794.2521054670215" cy="240.1322047226131" r="1" fill="white" opacity="1"/><circle cx="431.7178162559867" cy="554.1954007931054" r="1" fill="white" opacity="0.5216758745571133"/><circle cx="430.51323752850294" cy="157.38542517647147" r="0.8" fill="white" opacity="1"/><circle cx="68.53208418935537" cy="852.3424775339663" r="1.3" fill="white" opacity="1"/><circle cx="505.58762680739164" cy="155.86767671629786" r="1.8" fill="white" opacity="0.8282800446264447"/><circle cx="1334.672457240522" cy="8.21261154487729" r="1" fill="white" opacity="1"/><circle cx="1252.1245042607188" cy="166.93920409306884" r="0.8" fill="white" opacity="1"/><circle cx="889.1992991790175" cy="613.4748854674399" r="0.7" fill="white" opacity="0.6783677687554155"/><circle cx="447.5484914705157" cy="550.488084089011" r="1" fill="white" opacity="0.839876841204241"/><circle cx="981.1046143993735" cy="818.2090264745057" r="1.3" fill="white" opacity="0.9866396570345386"/><circle cx="1246.8721006438136" cy="807.8208505176008" r="0.8" fill="white" opacity="1"/><circle cx="1127.1245479211211" cy="200.04603127017617" r="0.8" fill="white" opacity="1"/><circle cx="1385.5082346126437" cy="107.05311922356486" r="0.8" fill="white" opacity="0.9888291084207594"/><circle cx="1399.5518853887916" cy="445.808791089803" r="0.6" fill="white" opacity="1"/><circle cx="1192.0826868340373" cy="621.0002130828798" r="1.3" fill="white" opacity="0.8135860298294575"/><circle cx="44.0485530719161" cy="845.6527166999876" r="1" fill="white" opacity="1"/><circle cx="171.24664139002562" cy="677.5677870027721" r="0.8" fill="white" opacity="0.8706492751836777"/><circle cx="1267.458117865026" cy="599.7063633985817" r="0.7" fill="white" opacity="0.989203257090412"/><circle cx="876.4891729876399" cy="722.6424529217184" r="1.3" fill="white" opacity="0.6997484354185872"/><circle cx="75.61828728765249" cy="937.2120560146868" r="0.6" fill="white" opacity="1"/><circle cx="1352.9497469589114" cy="95.48240480944514" r="0.6" fill="white" opacity="1"/><circle cx="321.17340948432684" cy="48.16651390865445" r="1.3" fill="white" opacity="1"/><circle cx="630.2307192608714" cy="616.608043666929" r="0.8" fill="white" opacity="0.9045404569082894"/><circle cx="1161.3869732245803" cy="827.4614759720862" r="0.7" fill="white" opacity="1"/><circle cx="1425.2098364755511" cy="988.1926025263965" r="0.7" fill="white" opacity="1"/><circle cx="885.9541079029441" cy="431.5243256278336" r="0.8" fill="white" opacity="0.7128972762578633"/><circle cx="1414.8527358099818" cy="6.9527714513242245" r="1" fill="white" opacity="1"/><circle cx="834.8140835389495" cy="647.4587158299983" r="0.7" fill="white" opacity="0.5770656171825248"/><circle cx="439.02544509619474" cy="589.5393225364387" r="0.8" fill="white" opacity="0.5949881278770045"/><circle cx="765.9628107771277" cy="74.6851940639317" r="1.3" fill="white" opacity="0.951096360082738"/><circle cx="593.3068827912211" cy="610.4277349077165" r="0.7" fill="white" opacity="0.878156082064379"/><circle cx="73.2653408870101" cy="119.08182734623551" r="1.8" fill="white" opacity="1"/><circle cx="651.8013579770923" cy="552.3088197223842" r="0.6" fill="white" opacity="0.5957459030114114"/><circle cx="534.2683657631278" cy="799.6248272247612" r="0.8" fill="white" opacity="0.9735553536331282"/><circle cx="659.9510703608394" cy="968.9793451689184" r="1.3" fill="white" opacity="1"/><circle cx="508.0127179250121" cy="367.52917477861047" r="0.8" fill="white" opacity="0.6963290421583225"/><circle cx="857.3486102744937" cy="760.7326614670455" r="0.8" fill="white" opacity="1"/><circle cx="742.8458705171943" cy="737.8892456181347" r="1" fill="white" opacity="0.7612699354765936"/><circle cx="690.5494586750865" cy="262.2493258677423" r="0.8" fill="white" opacity="1"/><circle cx="194.23443730920553" cy="733.8194348849356" r="0.6" fill="white" opacity="0.7837216405430808"/><circle cx="795.884487144649" cy="142.9877276532352" r="1.8" fill="white" opacity="0.8573642084375024"/><circle cx="572.5766726955771" cy="143.09478225186467" r="0.6" fill="white" opacity="1"/><circle cx="752.2724578902125" cy="120.0747131370008" r="1.3" fill="white" opacity="1"/><circle cx="901.0149716958404" cy="587.2915969230235" r="0.8" fill="white" opacity="0.6809220891643781"/><circle cx="1244.0325237438083" cy="483.69621066376567" r="1.3" fill="white" opacity="1"/><circle cx="803.2483699545264" cy="203.42808263376355" r="1" fill="white" opacity="1"/><circle cx="553.6967281624675" cy="434.98785560950637" r="1" fill="white" opacity="0.8678720747795888"/><circle cx="1001.3450437411666" cy="138.1049626506865" r="1" fill="white" opacity="1"/><circle cx="1224.8225052282214" cy="236.42561538144946" r="1.3" fill="white" opacity="1"/><circle cx="1023.5548099502921" cy="854.1461047716439" r="0.8" fill="white" opacity="0.980414831615053"/><circle cx="974.8051796481013" cy="174.7164144180715" r="0.6" fill="white" opacity="0.9538991216104478"/><circle cx="1322.1216261014342" cy="249.73914632573724" r="1" fill="white" opacity="1"/><circle cx="977.6904667541385" cy="336.1887591890991" r="0.8" fill="white" opacity="0.4963540951302275"/><circle cx="1161.0960903391242" cy="590.0761191733181" r="1.3" fill="white" opacity="1"/><circle cx="1276.986972503364" cy="194.68336319550872" r="0.7" fill="white" opacity="1"/><circle cx="914.1479414328933" cy="251.49407470598817" r="1" fill="white" opacity="1"/><circle cx="608.4786934778094" cy="11.943771969527006" r="1.8" fill="white" opacity="0.7508928989991546"/><circle cx="132.3785587772727" cy="278.11570884659886" r="0.8" fill="white" opacity="1"/><circle cx="633.0375168845057" cy="50.5069880746305" r="1" fill="white" opacity="1"/><circle cx="22.133462391793728" cy="750.9899870492518" r="0.8" fill="white" opacity="1"/><circle cx="179.4357205554843" cy="599.0940961055458" r="1" fill="white" opacity="1"/><circle cx="252.8148129209876" cy="969.7327692992985" r="1.3" fill="white" opacity="0.8467461918247863"/><circle cx="1097.1584729477763" cy="810.5008876882493" r="0.8" fill="white" opacity="1"/><circle cx="174.69391163438559" cy="446.6674351133406" r="1" fill="white" opacity="0.8909249164396896"/><circle cx="1239.216333143413" cy="351.98848647996783" r="1.8" fill="white" opacity="0.8309760142117738"/><circle cx="126.72370042651892" cy="713.4655085392296" r="1" fill="white" opacity="1"/><circle cx="494.9577508494258" cy="868.1739731691778" r="0.7" fill="white" opacity="1"/><circle cx="1394.3512618169188" cy="940.2872831560671" r="1.8" fill="white" opacity="1"/><circle cx="1152.8815663978457" cy="256.4210104756057" r="1" fill="white" opacity="1"/><circle cx="497.33031895011663" cy="367.4224470742047" r="0.6" fill="white" opacity="0.7488383399869782"/><circle cx="1153.4495107457042" cy="754.7304681502283" r="1.8" fill="white" opacity="0.8244951790664344"/><circle cx="847.5337355956435" cy="549.4307079352438" r="1" fill="white" opacity="0.5256014941690955"/><circle cx="391.89870547503233" cy="842.1310479752719" r="1" fill="white" opacity="0.8915032507851719"/><circle cx="16.766016148030758" cy="411.7824179120362" r="1" fill="white" opacity="0.9854032525559888"/><circle cx="1351.0541627928615" cy="951.5699087642133" r="0.6" fill="white" opacity="1"/><circle cx="134.5758056268096" cy="119.99919870868325" r="1.8" fill="white" opacity="1"/><circle cx="1184.1412855312228" cy="995.303291361779" r="0.7" fill="white" opacity="1"/><circle cx="1096.0683896765113" cy="761.2945665605366" r="0.6" fill="white" opacity="1"/><circle cx="1167.5983671471477" cy="702.7871436439455" r="0.6" fill="white" opacity="1"/><circle cx="1059.718194566667" cy="838.7145572341979" r="1.3" fill="white" opacity="1"/><circle cx="403.8890917226672" cy="771.0677455179393" r="0.8" fill="white" opacity="1"/><circle cx="1355.1812871918082" cy="577.7783510275185" r="0.8" fill="white" opacity="0.7795270256465301"/><circle cx="1134.3150339648128" cy="827.6723339222372" r="0.7" fill="white" opacity="0.9128871734719723"/><circle cx="1401.107875071466" cy="45.61889776960015" r="0.6" fill="white" opacity="1"/><circle cx="1181.8281592056155" cy="205.9997278265655" r="1.8" fill="white" opacity="1"/><circle cx="912.9548063501716" cy="82.62354182079434" r="0.8" fill="white" opacity="0.8119305236963554"/><circle cx="883.8433234021068" cy="533.2109532319009" r="0.8" fill="white" opacity="0.5014905750774779"/><circle cx="760.7980697974563" cy="46.574647072702646" r="1.8" fill="white" opacity="1"/><circle cx="35.05077313631773" cy="130.61986817047" r="0.8" fill="white" opacity="1"/><circle cx="1037.1452948078513" cy="369.2902219481766" r="0.6" fill="white" opacity="0.5323852660262492"/><circle cx="680.2286456152797" cy="226.58378770574927" r="1.3" fill="white" opacity="1"/><circle cx="654.748251400888" cy="925.7645444013178" r="0.7" fill="white" opacity="1"/><circle cx="1357.0554686710238" cy="981.8941089324653" r="0.7" fill="white" opacity="1"/><circle cx="1354.4153502210975" cy="215.80878691747785" r="1" fill="white" opacity="1"/><circle cx="68.9226607605815" cy="327.6669359765947" r="0.6" fill="white" opacity="1"/><circle cx="282.8241425380111" cy="358.1916415132582" r="0.8" fill="white" opacity="1"/><circle cx="227.74703096598387" cy="615.733704995364" r="1" fill="white" opacity="0.8122133117169142"/><circle cx="1380.33382024616" cy="897.2799447365105" r="0.6" fill="white" opacity="1"/><circle cx="846.7832789942622" cy="81.53180917724967" r="1.8" fill="white" opacity="0.8363084397744388"/><circle cx="938.7977158650756" cy="422.1793026663363" r="0.8" fill="white" opacity="0.7838305450149345"/><circle cx="1223.4364951774478" cy="119.4952237419784" r="0.6" fill="white" opacity="0.9799309420399367"/><circle cx="609.375802539289" cy="998.3747159130871" r="1.8" fill="white" opacity="1"/><circle cx="1392.0746604725718" cy="370.9451309405267" r="1.3" fill="white" opacity="1"/><circle cx="340.3471940383315" cy="411.8712046183646" r="0.8" fill="white" opacity="0.9085849740786945"/><circle cx="1226.8411464616656" cy="624.4805450551212" r="0.8" fill="white" opacity="1"/><circle cx="44.92264475673437" cy="225.8344334550202" r="1" fill="white" opacity="1"/><circle cx="1074.4672153517604" cy="528.8689373992383" r="0.8" fill="white" opacity="0.5773786653927527"/><circle cx="1359.0570497140288" cy="649.7313366271555" r="1" fill="white" opacity="1"/><circle cx="1037.0845199748874" cy="118.43686131760478" r="1" fill="white" opacity="1"/><circle cx="849.2619445547462" cy="220.9707428701222" r="0.7" fill="white" opacity="1"/><circle cx="345.03760378807783" cy="150.96057718619704" r="1.8" fill="white" opacity="1"/><circle cx="590.4180055484176" cy="299.0440004505217" r="0.7" fill="white" opacity="0.9633651491487399"/><circle cx="1139.696400873363" cy="258.0566774122417" r="0.6" fill="white" opacity="1"/><circle cx="113.58754958957434" cy="372.16560216620564" r="0.8" fill="white" opacity="0.8347820266848429"/><circle cx="826.2687359377742" cy="908.0727114342153" r="1.8" fill="white" opacity="1"/><circle cx="1403.8270341977477" cy="176.41381034627557" r="0.7" fill="white" opacity="0.9748367148684337"/><circle cx="356.61282431334257" cy="181.47781072184443" r="1.3" fill="white" opacity="1"/><circle cx="1027.999557517469" cy="627.371281851083" r="1" fill="white" opacity="0.6958032238099259"/><circle cx="1082.0497719570994" cy="358.75331377610564" r="0.6" fill="white" opacity="0.8797849796363153"/><circle cx="1072.5873583182693" cy="564.2656930722296" r="1.3" fill="white" opacity="0.8693598966544961"/><circle cx="256.17607545107603" cy="320.7833911292255" r="0.8" fill="white" opacity="0.9725332578644156"/><circle cx="11.504315994679928" cy="306.6103649325669" r="0.8" fill="white" opacity="1"/><circle cx="1027.6761220023036" cy="761.7456703446805" r="1.8" fill="white" opacity="0.9928456665482371"/><circle cx="943.9084505662322" cy="23.344887886196375" r="1" fill="white" opacity="0.9968140901299193"/><circle cx="923.1346894428134" cy="214.50186101719737" r="1.8" fill="white" opacity="1"/><circle cx="1202.0144226774573" cy="914.4757469184697" r="1.8" fill="white" opacity="0.9087936122668907"/><circle cx="579.8494462296367" cy="888.4883797727525" r="1" fill="white" opacity="0.9407321013975888"/><circle cx="768.9060335978866" cy="205.21694654598832" r="1.8" fill="white" opacity="1"/><circle cx="1048.6434514448047" cy="320.10697526857257" r="1" fill="white" opacity="0.5762973050214351"/><circle cx="706.3487252220511" cy="952.6306358166039" r="0.8" fill="white" opacity="0.7821325134253129"/><circle cx="1186.6776547953486" cy="835.6153531931341" r="1.8" fill="white" opacity="1"/><circle cx="232.60208006948233" cy="664.767733309418" r="0.8" fill="white" opacity="0.7752689882414416"/><circle cx="900.2633966132998" cy="826.5178012661636" r="0.8" fill="white" opacity="0.9491755465976893"/><circle cx="1090.2323212847114" cy="732.3085521347821" r="0.6" fill="white" opacity="1"/><circle cx="157.67490785568953" cy="837.4558142386377" r="1" fill="white" opacity="1"/><circle cx="483.9248126372695" cy="672.7034249342978" r="1.8" fill="white" opacity="0.5237894279567992"/><circle cx="971.9618101045489" cy="466.5987188927829" r="0.7" fill="white" opacity="0.7292540052998812"/><circle cx="1388.296558521688" cy="186.8133288808167" r="1.3" fill="white" opacity="1"/><circle cx="833.7616155669093" cy="78.53429904207587" r="0.7" fill="white" opacity="1"/><circle cx="1345.708703957498" cy="28.050510678440332" r="0.6" fill="white" opacity="1"/><circle cx="634.1122270748019" cy="329.6594205312431" r="1.3" fill="white" opacity="0.7004667143756526"/><circle cx="74.07903458923101" cy="684.0191115625203" r="0.8" fill="white" opacity="1"/><circle cx="1157.264438085258" cy="506.07065623626113" r="0.7" fill="white" opacity="1"/><circle cx="1404.694476686418" cy="870.6557922996581" r="0.7" fill="white" opacity="1"/><circle cx="1103.4944326803088" cy="673.9549110643566" r="0.6" fill="white" opacity="0.5599856820702552"/><circle cx="910.0235971435905" cy="838.8703581877053" r="1.8" fill="white" opacity="0.9194220222299919"/><circle cx="961.9162855669856" cy="642.480046954006" r="1" fill="white" opacity="0.7677845379221253"/><circle cx="981.5291034802794" cy="493.6863840557635" r="0.7" fill="white" opacity="0.6093353433266747"/><circle cx="1213.2944620773196" cy="739.1855078749359" r="1.8" fill="white" opacity="1"/><circle cx="77.48034384101629" cy="325.88183926418424" r="1.3" fill="white" opacity="0.9292614905862138"/><circle cx="622.8563181683421" cy="397.87294482812285" r="1.3" fill="white" opacity="0.4974771770113148"/><circle cx="780.7658069953322" cy="156.1297127045691" r="0.6" fill="white" opacity="1"/><circle cx="383.10460042208433" cy="558.9968408457935" r="0.7" fill="white" opacity="0.7783011427056046"/><circle cx="666.7056223377585" cy="691.6386377997696" r="0.6" fill="white" opacity="0.6510769758874085"/><circle cx="1146.6299460455775" cy="882.5551359914243" r="1" fill="white" opacity="0.9207621508743613"/><circle cx="540.8640598878264" cy="895.2935175038874" r="1.3" fill="white" opacity="1"/><circle cx="148.92338287085295" cy="773.4798523597419" r="0.8" fill="white" opacity="0.8754117091186345"/><circle cx="1246.8620302900672" cy="167.296149302274" r="1.8" fill="white" opacity="1"/><circle cx="1381.1888293549418" cy="219.52771907672286" r="1.3" fill="white" opacity="0.7760608762968331"/><circle cx="564.189584814012" cy="339.3058502115309" r="1" fill="white" opacity="0.5972959581913893"/><circle cx="1373.1555945798755" cy="441.6707972995937" r="1" fill="white" opacity="1"/><circle cx="276.01841535419226" cy="481.0800817795098" r="0.6" fill="white" opacity="1"/><circle cx="985.8908782526851" cy="356.98710521683097" r="0.8" fill="white" opacity="0.7273609878192655"/><circle cx="367.01435443013906" cy="519.6150750853121" r="0.7" fill="white" opacity="0.8354747328080702"/><circle cx="14.612270705401897" cy="854.0512430481613" r="1.8" fill="white" opacity="0.8092126163654029"/><circle cx="511.1498751863837" cy="670.7864557392895" r="0.6" fill="white" opacity="0.9082250463764648"/><circle cx="521.5002528950572" cy="880.8250180445611" r="0.7" fill="white" opacity="1"/><circle cx="209.51659139245749" cy="683.4898688830435" r="0.8" fill="white" opacity="1"/><circle cx="178.51069640368223" cy="345.04806948825717" r="1" fill="white" opacity="1"/><circle cx="458.1377574428916" cy="896.2816041894257" r="1" fill="white" opacity="1"/><circle cx="100.18736343830824" cy="827.1284936927259" r="1" fill="white" opacity="1"/><circle cx="1185.7807683572173" cy="106.51922086253762" r="0.6" fill="white" opacity="1"/><circle cx="1246.4744068309665" cy="105.53346900269389" r="1" fill="white" opacity="1"/><circle cx="221.76965977996588" cy="252.00217263773084" r="0.8" fill="white" opacity="0.9743745782179758"/><circle cx="915.5288700386882" cy="494.6798807941377" r="0.8" fill="white" opacity="0.7108124760654756"/><circle cx="993.7976079806685" cy="905.1124327816069" r="0.7" fill="white" opacity="1"/><circle cx="846.5331871435046" cy="995.3249464742839" r="0.7" fill="white" opacity="0.7875937812030315"/><circle cx="155.73942985385656" cy="579.4551190920174" r="0.8" fill="white" opacity="0.8066891997819767"/><circle cx="1012.507682852447" cy="257.4568404816091" r="1.3" fill="white" opacity="1"/><circle cx="1225.4640829190612" cy="848.9991188980639" r="0.7" fill="white" opacity="1"/><circle cx="703.1230724975467" cy="355.6853192858398" r="1" fill="white" opacity="0.5689242466678843"/><circle cx="952.6471653208137" cy="279.71771406009793" r="1" fill="white" opacity="1"/><circle cx="1137.5129620358348" cy="377.13234638795257" r="0.7" fill="white" opacity="0.5782683390774764"/><circle cx="256.58341582864523" cy="173.72920596972108" r="0.8" fill="white" opacity="1"/><circle cx="967.0863480493426" cy="821.822717320174" r="1.3" fill="white" opacity="1"/><circle cx="853.9992138370872" cy="125.9375405497849" r="1" fill="white" opacity="1"/><circle cx="508.34011774510145" cy="815.5746846459806" r="1.3" fill="white" opacity="1"/><circle cx="536.8650793656707" cy="393.17293325439095" r="1" fill="white" opacity="0.8825788795959671"/><circle cx="305.6715489551425" cy="135.39058296009898" r="0.8" fill="white" opacity="1"/><circle cx="60.20817305892706" cy="75.83249406889081" r="1" fill="white" opacity="1"/><circle cx="1224.190810136497" cy="47.3474538885057" r="0.8" fill="white" opacity="1"/><circle cx="39.92479618638754" cy="112.02085250988603" r="0.8" fill="white" opacity="1"/><circle cx="312.53346037119627" cy="956.9876710884273" r="0.6" fill="white" opacity="1"/><circle cx="820.5928906425834" cy="84.19078262522817" r="1.8" fill="white" opacity="1"/><circle cx="1155.6729493662715" cy="872.2095652483404" r="1.8" fill="white" opacity="0.9596152543555946"/><circle cx="993.2845389470458" cy="838.2838279940188" r="1.3" fill="white" opacity="1"/><circle cx="1277.733117453754" cy="678.6580490879714" r="0.7" fill="white" opacity="0.9239093388430774"/><circle cx="323.3784642443061" cy="915.3709267266095" r="0.6" fill="white" opacity="0.8640944230137393"/><circle cx="1234.8006955906749" cy="227.6152423582971" r="0.7" fill="white" opacity="0.8158747470472009"/><circle cx="1328.3725303038955" cy="795.7930364646018" r="1.3" fill="white" opacity="1"/><circle cx="837.7378053590655" cy="236.3910968415439" r="0.6" fill="white" opacity="0.8443336816504599"/><circle cx="865.6962415203452" cy="955.8017593808472" r="0.8" fill="white" opacity="1"/><circle cx="1224.9944589659572" cy="1.2140213511884212" r="0.6" fill="white" opacity="0.8972938311751931"/><circle cx="530.5232429131866" cy="736.6999671794474" r="0.8" fill="white" opacity="0.8621673953952267"/><circle cx="1265.421059243381" cy="922.6215067319572" r="0.8" fill="white" opacity="1"/><circle cx="1303.5838201269507" cy="26.482426095753908" r="1.8" fill="white" opacity="0.8852524907095357"/><circle cx="1251.0808996483684" cy="843.3507508598268" r="1.3" fill="white" opacity="1"/><circle cx="1168.977399431169" cy="753.9764218963683" r="0.8" fill="white" opacity="1"/><circle cx="920.0626642629504" cy="198.7292836420238" r="0.6" fill="white" opacity="1"/><circle cx="21.985047720372677" cy="195.48238487914205" r="0.7" fill="white" opacity="0.9448257468407975"/><circle cx="449.29292779415846" cy="979.5655920170248" r="1.3" fill="white" opacity="1"/><circle cx="346.8819725140929" cy="93.91451487317681" r="1" fill="white" opacity="0.8397267456399278"/><circle cx="97.34865557402372" cy="507.5397449545562" r="0.8" fill="white" opacity="1"/><circle cx="784.750021956861" cy="590.4414062388241" r="0.8" fill="white" opacity="0.8063882315147204"/><circle cx="1377.2697035595775" cy="23.094018455594778" r="0.8" fill="white" opacity="0.9090148272458465"/><circle cx="1311.2901848182082" cy="968.6266728676856" r="0.7" fill="white" opacity="1"/><circle cx="1119.371318332851" cy="85.82352055236697" r="1.3" fill="white" opacity="1"/><circle cx="1304.6350904926658" cy="211.06957318261266" r="0.8" fill="white" opacity="1"/><circle cx="24.056637100875378" cy="787.3668163083494" r="1.8" fill="white" opacity="1"/><circle cx="583.1615089997649" cy="368.545635137707" r="1.3" fill="white" opacity="0.7675107137497982"/><circle cx="1224.629187695682" cy="776.7965528182685" r="0.7" fill="white" opacity="0.8883727733977138"/><circle cx="533.3028509840369" cy="741.6472812183201" r="1.3" fill="white" opacity="1"/><circle cx="300.1053885743022" cy="98.51008420810103" r="0.8" fill="white" opacity="1"/><circle cx="1007.361667715013" cy="874.9244534410536" r="1.8" fill="white" opacity="1"/><circle cx="1298.027048818767" cy="842.6200966350734" r="0.7" fill="white" opacity="1"/><circle cx="191.32215108722448" cy="363.52523835375905" r="0.6" fill="white" opacity="0.8472644675290213"/><circle cx="1167.273868136108" cy="607.8452332876623" r="0.8" fill="white" opacity="1"/><circle cx="322.66263362020254" cy="472.33649203553796" r="0.6" fill="white" opacity="0.5496209805377295"/><circle cx="200.875936858356" cy="776.9007193855941" r="1.8" fill="white" opacity="0.9821329015307128"/><circle cx="538.1680884584785" cy="567.6244650967419" r="1" fill="white" opacity="0.7933471198927147"/><circle cx="1048.8262359425426" cy="604.3889871798456" r="0.8" fill="white" opacity="0.8031666419492104"/><circle cx="1331.7426293715835" cy="361.1754276789725" r="0.8" fill="white" opacity="0.8125813110033051"/><circle cx="620.8931369706988" cy="117.19030095264316" r="1" fill="white" opacity="0.918445792235434"/><circle cx="462.2220107540488" cy="966.9362944550812" r="1.8" fill="white" opacity="0.9276775749167427"/><circle cx="799.4329021498561" cy="827.3533820174634" r="1.3" fill="white" opacity="0.9132571523543448"/><circle cx="471.1861276254058" cy="770.1552496291697" r="1.8" fill="white" opacity="1"/><circle cx="522.2021843120456" cy="257.486033719033" r="0.8" fill="white" opacity="1"/><circle cx="450.7715156301856" cy="109.02237193658948" r="1.3" fill="white" opacity="1"/><circle cx="915.1705269142985" cy="278.6457664333284" r="0.6" fill="white" opacity="0.9575608473736792"/><circle cx="861.4838510379195" cy="768.8102596439421" r="0.6" fill="white" opacity="0.9720958199584856"/><circle cx="435.3328640386462" cy="260.73042256757617" r="0.7" fill="white" opacity="0.8058514572679996"/><circle cx="1240.0104507431388" cy="288.5146555490792" r="0.6" fill="white" opacity="1"/><circle cx="183.52202039211988" cy="35.368801560252905" r="0.7" fill="white" opacity="1"/><circle cx="877.0327722653747" cy="79.99507198110223" r="0.6" fill="white" opacity="1"/><circle cx="667.2212113067508" cy="671.3112848810852" r="1.3" fill="white" opacity="0.7037432961305603"/><circle cx="1025.0389137491584" cy="359.6154158003628" r="0.6" fill="white" opacity="0.8057545928272883"/><circle cx="93.37654273957014" cy="62.32046103104949" r="0.8" fill="white" opacity="1"/><circle cx="1436.1361139640212" cy="892.3846133984625" r="0.8" fill="white" opacity="1"/><circle cx="1391.2095112726092" cy="327.56175054237247" r="1.8" fill="white" opacity="1"/><circle cx="1309.8632523044944" cy="548.5972356982529" r="0.6" fill="white" opacity="1"/><circle cx="605.0295041128993" cy="24.494030978530645" r="0.8" fill="white" opacity="1"/><circle cx="331.00334879010916" cy="672.9741231538355" r="0.7" fill="white" opacity="0.8859904261690099"/><circle cx="1297.0462990924716" cy="174.2602619342506" r="0.8" fill="white" opacity="0.8266230580396949"/><circle cx="1237.3960640653968" cy="266.30301075056195" r="0.8" fill="white" opacity="1"/><circle cx="240.18256466835737" cy="99.57811003550887" r="0.7" fill="white" opacity="0.9049514063168318"/><circle cx="957.7501993998885" cy="979.5791530050337" r="0.8" fill="white" opacity="1"/><circle cx="560.8863599225879" cy="75.13057393953204" r="1.8" fill="white" opacity="1"/><circle cx="559.4561966881156" cy="920.6459489651024" r="0.7" fill="white" opacity="0.7677841704105958"/><circle cx="491.94363456219435" cy="790.4566093347967" r="0.6" fill="white" opacity="1"/><circle cx="886.3986384496093" cy="273.3355672098696" r="0.6" fill="white" opacity="1"/><circle cx="935.290728919208" cy="625.3417539410293" r="0.8" fill="white" opacity="0.876037819753401"/><circle cx="1166.7687478289008" cy="729.1095708496869" r="1" fill="white" opacity="1"/><circle cx="154.82687395066023" cy="737.7087525092065" r="1.8" fill="white" opacity="0.9994101426098495"/><circle cx="590.8768885955215" cy="731.1995425261557" r="0.8" fill="white" opacity="0.9907160317758099"/><circle cx="79.22669123858213" cy="964.0081818215549" r="1.8" fill="white" opacity="0.9446540789678693"/><circle cx="1418.9650651440024" cy="531.2477094121277" r="1" fill="white" opacity="1"/><circle cx="1174.752692990005" cy="532.109075691551" r="0.6" fill="white" opacity="1"/><circle cx="659.019422493875" cy="58.44756821170449" r="1.3" fill="white" opacity="0.8747184035601094"/><circle cx="288.0677820369601" cy="586.6895499639213" r="1.3" fill="white" opacity="0.874601283017546"/><circle cx="554.5827462896705" cy="601.1845101602376" r="1.8" fill="white" opacity="0.7298041425354314"/><circle cx="99.04775183647871" cy="527.1274275146425" r="0.6" fill="white" opacity="1"/><circle cx="442.56696280092" cy="301.17644602432847" r="1.8" fill="white" opacity="0.710917192135239"/><circle cx="1383.593786470592" cy="157.89086325094104" r="0.7" fill="white" opacity="0.9507661610841751"/><circle cx="221.0656389221549" cy="460.1144311018288" r="0.8" fill="white" opacity="1"/><circle cx="1126.4449606463313" cy="651.4289691112936" r="0.6" fill="white" opacity="0.7523767317342571"/><circle cx="1027.1664821729064" cy="658.8032902218401" r="0.8" fill="white" opacity="0.7960810171917548"/><circle cx="803.9907396957278" cy="323.5624390654266" r="0.6" fill="white" opacity="0.5815529158478603"/><circle cx="244.76384069770575" cy="688.802242744714" r="0.8" fill="white" opacity="1"/><circle cx="357.0834795758128" cy="221.3741741143167" r="0.6" fill="white" opacity="1"/><circle cx="1002.3712032660842" cy="296.565527562052" r="1.8" fill="white" opacity="0.9957572939107195"/><circle cx="893.8509268686175" cy="523.5999072901905" r="1" fill="white" opacity="0.7944643099140375"/><circle cx="160.933699272573" cy="740.0830280967057" r="1.8" fill="white" opacity="0.8915523936739191"/><circle cx="282.50871878117323" cy="753.5188286565244" r="0.8" fill="white" opacity="0.7974084043409676"/><circle cx="871.6405987367034" cy="158.02089730277658" r="1.8" fill="white" opacity="1"/><circle cx="354.17288314551115" cy="804.3442103080451" r="0.8" fill="white" opacity="0.7545427610166371"/><circle cx="743.7378123030066" cy="751.3621826656163" r="1" fill="white" opacity="0.8362428289605304"/><circle cx="1235.6723384186625" cy="777.1140313707292" r="1.8" fill="white" opacity="0.9059402764309197"/><circle cx="262.340391241014" cy="777.5474512018263" r="1" fill="white" opacity="1"/><circle cx="92.36139368265867" cy="631.0816030018032" r="1" fill="white" opacity="0.8788618739694356"/><circle cx="1216.2450274452567" cy="357.1154144592583" r="0.8" fill="white" opacity="1"/><circle cx="40.93224864453077" cy="646.6061933897436" r="1" fill="white" opacity="0.9447930253576486"/><circle cx="895.742553435266" cy="92.84355351701379" r="1.3" fill="white" opacity="0.7725056356983259"/><circle cx="432.2274936363101" cy="700.543652754277" r="1.3" fill="white" opacity="0.6725090433983132"/><circle cx="780.4304423555732" cy="501.3887439854443" r="1" fill="white" opacity="0.6468965463142378"/><circle cx="184.0526096150279" cy="354.13703834638" r="0.8" fill="white" opacity="1"/><circle cx="917.0253079757094" cy="257.42788100615144" r="1" fill="white" opacity="1"/><circle cx="1203.9884681627154" cy="753.4072394482791" r="1" fill="white" opacity="0.9493257293477654"/><circle cx="147.17540469020605" cy="250.29850425198674" r="1" fill="white" opacity="1"/><circle cx="382.20383148640394" cy="342.043602373451" r="1" fill="white" opacity="0.7298345735273325"/><circle cx="745.2731275185943" cy="453.1394229270518" r="0.6" fill="white" opacity="0.7472964706469792"/><circle cx="394.2678524181247" cy="386.7945554666221" r="0.7" fill="white" opacity="0.5521300788084045"/><circle cx="186.26751210540533" cy="604.5313407666981" r="0.8" fill="white" opacity="0.9959051796002313"/><circle cx="433.9625744149089" cy="315.35823410376906" r="1.8" fill="white" opacity="0.710250374909956"/><circle cx="283.4767347201705" cy="702.6374810375273" r="1.8" fill="white" opacity="1"/><circle cx="1436.0954315587878" cy="866.7731056921184" r="0.8" fill="white" opacity="0.9963610254228116"/><circle cx="576.400612257421" cy="311.84421153739095" r="0.8" fill="white" opacity="0.8267177620378788"/><circle cx="1309.3117485567927" cy="54.308594670146704" r="0.8" fill="white" opacity="1"/><circle cx="448.53310223668814" cy="681.9016695953906" r="1.3" fill="white" opacity="0.7252369848371018"/><circle cx="338.9072407409549" cy="940.8557075075805" r="0.6" fill="white" opacity="1"/><circle cx="1335.174802802503" cy="679.5643870718777" r="0.8" fill="white" opacity="0.8030982843367384"/><circle cx="919.6405140683055" cy="226.8176577053964" r="1.8" fill="white" opacity="0.9387631873134524"/><circle cx="381.2454527243972" cy="532.731915358454" r="0.8" fill="white" opacity="0.6581056552624797"/><circle cx="178.54556512087584" cy="650.500490795821" r="0.7" fill="white" opacity="1"/><circle cx="29.096431396901608" cy="387.08945037797093" r="1" fill="white" opacity="0.9328744990518317"/><circle cx="1407.7442811056972" cy="201.0037093423307" r="1.8" fill="white" opacity="0.7709009842481463"/><circle cx="416.32325883954763" cy="675.2484575845301" r="0.8" fill="white" opacity="0.7952731733035762"/><circle cx="1107.2589398548007" cy="143.6108979396522" r="0.8" fill="white" opacity="1"/><circle cx="503.5780956968665" cy="298.3872969634831" r="1" fill="white" opacity="1"/><circle cx="597.8247098252177" cy="857.680348213762" r="1.3" fill="white" opacity="1"/><circle cx="732.3822432383895" cy="620.3918480314314" r="1.8" fill="white" opacity="0.7071279323624913"/><circle cx="443.7021500989795" cy="487.0356838218868" r="1" fill="white" opacity="0.9041074340231717"/><circle cx="12.938643358647823" cy="274.4961348362267" r="1.8" fill="white" opacity="1"/><circle cx="725.4897103831172" cy="402.85648545250297" r="1.8" fill="white" opacity="0.695307479321491"/><circle cx="1.9443785771727562" cy="782.4229509569705" r="0.8" fill="white" opacity="1"/><circle cx="1402.9362310096622" cy="479.06891582533717" r="1" fill="white" opacity="1"/><circle cx="830.4031720384955" cy="986.0244845040143" r="1.3" fill="white" opacity="1"/><circle cx="1327.7534429356456" cy="180.23634469136596" r="0.6" fill="white" opacity="1"/><circle cx="1241.4378875121474" cy="291.42294311895967" r="0.6" fill="white" opacity="0.9252649685600773"/><circle cx="226.42846774309874" cy="461.9499738328159" r="0.7" fill="white" opacity="0.9588279308751226"/><circle cx="258.10302939265966" cy="725.6511789746583" r="0.8" fill="white" opacity="0.7531230399152263"/><circle cx="773.0363176390529" cy="483.7194620631635" r="1" fill="white" opacity="0.6705781830078924"/><circle cx="381.1972426995635" cy="805.7933137752116" r="1" fill="white" opacity="1"/><circle cx="672.0523954555392" cy="134.36355022713542" r="0.8" fill="white" opacity="1"/><circle cx="797.0758130773902" cy="220.6253637559712" r="1.3" fill="white" opacity="0.8529363513691351"/><circle cx="671.1649946495891" cy="369.90068620070815" r="0.8" fill="white" opacity="0.6985713726771063"/><circle cx="755.463166795671" cy="324.7558646835387" r="0.7" fill="white" opacity="0.7860048737714532"/><circle cx="1144.0877993032336" cy="363.9396498911083" r="1.8" fill="white" opacity="0.9690032377839088"/><circle cx="157.26537074893713" cy="445.2664968557656" r="0.7" fill="white" opacity="0.8209093801444397"/><circle cx="203.37238412350416" cy="470.57017823681235" r="0.6" fill="white" opacity="1"/><circle cx="232.38263245671988" cy="0.8527101017534733" r="1.3" fill="white" opacity="0.9534163321601228"/><circle cx="543.2207144424319" cy="999.753590207547" r="0.6" fill="white" opacity="1"/><circle cx="1427.5218000635505" cy="433.4643487818539" r="0.7" fill="white" opacity="1"/><circle cx="532.2976462170482" cy="805.2134118042886" r="0.6" fill="white" opacity="1"/><circle cx="1384.0088623389602" cy="952.4462767876685" r="1.8" fill="white" opacity="0.9896839009830729"/><circle cx="1236.5434260293841" cy="684.826001059264" r="0.8" fill="white" opacity="1"/><circle cx="205.60144867748022" cy="91.17900254204869" r="1.8" fill="white" opacity="1"/><circle cx="571.9861910864711" cy="593.5111730359495" r="1" fill="white" opacity="0.8702592247514985"/><circle cx="56.30132909864187" cy="76.21930399909616" r="0.8" fill="white" opacity="0.7856400796445087"/><circle cx="507.55446922034025" cy="668.6228248290718" r="1.3" fill="white" opacity="0.8839084617840125"/><circle cx="528.1669142469764" cy="8.940853644162416" r="0.7" fill="white" opacity="1"/><circle cx="1397.889678888023" cy="67.83956056460738" r="1.8" fill="white" opacity="1"/><circle cx="1299.125755392015" cy="859.674843493849" r="0.7" fill="white" opacity="1"/><circle cx="726.1586291715503" cy="619.5553163997829" r="0.7" fill="white" opacity="0.5399797621183098"/><circle cx="560.7870444282889" cy="274.3506100960076" r="1.3" fill="white" opacity="1"/><circle cx="576.8660197779536" cy="285.76998552307487" r="0.7" fill="white" opacity="0.9097356818150728"/><circle cx="736.2541138753295" cy="193.63625952973962" r="1.3" fill="white" opacity="1"/><circle cx="798.6669410392642" cy="437.48004315420985" r="1.3" fill="white" opacity="0.7654655478475615"/><circle cx="1327.936936877668" cy="284.5792924053967" r="1.3" fill="white" opacity="0.9322810779092833"/><circle cx="897.1793739125133" cy="942.5691715441644" r="0.8" fill="white" opacity="1"/><circle cx="495.3646272048354" cy="184.7472288645804" r="1.3" fill="white" opacity="1"/><circle cx="577.796689979732" cy="66.19888497516513" r="1.8" fill="white" opacity="0.9995278710499407"/><circle cx="1042.9979392513633" cy="558.8682335801423" r="1" fill="white" opacity="0.5613214523659554"/><circle cx="378.5001514479518" cy="183.69915476068854" r="0.6" fill="white" opacity="1"/><circle cx="658.0417680367827" cy="967.9717407561839" r="1" fill="white" opacity="1"/><circle cx="952.6714111492038" cy="305.9590342454612" r="1.3" fill="white" opacity="0.9225891295680777"/><circle cx="958.2576492056251" cy="551.0290791280568" r="1.8" fill="white" opacity="0.5229973493597936"/><circle cx="1001.9050125405192" cy="417.31728380545974" r="1" fill="white" opacity="0.6726793234166688"/><circle cx="789.7762590274215" cy="519.0940969623625" r="1" fill="white" opacity="0.7066274899954441"/><circle cx="1058.8208897039294" cy="625.9529958479106" r="1.3" fill="white" opacity="0.5817889906838536"/><circle cx="1134.9099143967032" cy="461.9437870569527" r="0.8" fill="white" opacity="0.5440666317043361"/><circle cx="159.8768673464656" cy="126.7762198112905" r="1" fill="white" opacity="1"/><circle cx="29.965072833001614" cy="467.2189117409289" r="0.8" fill="white" opacity="1"/><circle cx="1248.181160800159" cy="976.8185871653259" r="0.8" fill="white" opacity="0.8303787960670888"/><circle cx="533.0548324808478" cy="52.06462787464261" r="0.6" fill="white" opacity="0.7504226899472997"/><circle cx="826.3048760220408" cy="683.1239364109933" r="0.6" fill="white" opacity="0.7791091949888506"/><circle cx="61.91143210977316" cy="907.2711118496954" r="1.3" fill="white" opacity="1"/><circle cx="299.09450959414244" cy="603.1389380805194" r="0.6" fill="white" opacity="1"/><circle cx="1421.6987511143088" cy="453.91418458893895" r="0.8" fill="white" opacity="0.9283318964531646"/><circle cx="126.484448723495" cy="157.60371973738074" r="0.7" fill="white" opacity="1"/><circle cx="882.8248095139861" cy="212.4959365464747" r="0.6" fill="white" opacity="1"/><circle cx="1266.3094712421298" cy="855.9424909763038" r="1.8" fill="white" opacity="1"/><circle cx="828.7542679533362" cy="984.5853527076542" r="0.8" fill="white" opacity="1"/><circle cx="947.1172456070781" cy="134.15416842326522" r="0.8" fill="white" opacity="0.8146235920954497"/><circle cx="893.8209277018905" cy="846.9589375890791" r="0.7" fill="white" opacity="1"/><circle cx="50.980830900371075" cy="5.203000735491514" r="0.8" fill="white" opacity="1"/><circle cx="711.04023065418" cy="958.241340238601" r="1.8" fill="white" opacity="1"/><circle cx="506.31117682904005" cy="521.9091936014593" r="0.6" fill="white" opacity="0.867753779932391"/><circle cx="1309.9217593297362" cy="178.04597923532128" r="0.8" fill="white" opacity="1"/><circle cx="1330.6696237251163" cy="52.33953474089503" r="1.3" fill="white" opacity="1"/><circle cx="844.2817368730903" cy="498.61566768959165" r="0.7" fill="white" opacity="0.8599018554564101"/><circle cx="523.5804025456309" cy="367.6980189047754" r="0.8" fill="white" opacity="0.501708776971791"/><circle cx="490.0555270537734" cy="288.9632382430136" r="0.8" fill="white" opacity="1"/><circle cx="1369.3431348726153" cy="542.7164728753269" r="1" fill="white" opacity="1"/><circle cx="353.1101342663169" cy="351.51216806843877" r="0.6" fill="white" opacity="0.8810144447477067"/><circle cx="109.84533291310072" cy="668.5451804660261" r="1" fill="white" opacity="0.7580247012432664"/><circle cx="1227.056703530252" cy="791.2372038699687" r="1" fill="white" opacity="1"/><circle cx="1067.3748994991183" cy="378.14350752159953" r="0.7" fill="white" opacity="0.9049362792307513"/><circle cx="681.0630204901099" cy="697.3049868829548" r="0.8" fill="white" opacity="0.6250869515247178"/><circle cx="177.4326280876994" cy="184.17052691802382" r="1.3" fill="white" opacity="0.8308083061594517"/><circle cx="757.666011415422" cy="637.2146778739989" r="1.8" fill="white" opacity="0.645279185656691"/><circle cx="291.5447027608752" cy="629.3756435625255" r="0.8" fill="white" opacity="0.8008984565734862"/></g></svg>